<?xml version="1.0" encoding="UTF-8" standalone="no"?>
<!-- Created with Inkscape (http://www.inkscape.org/) -->

<svg
   xmlns:dc="http://purl.org/dc/elements/1.1/"
   xmlns:cc="http://creativecommons.org/ns#"
   xmlns:rdf="http://www.w3.org/1999/02/22-rdf-syntax-ns#"
   xmlns:svg="http://www.w3.org/2000/svg"
   xmlns="http://www.w3.org/2000/svg"
   xmlns:sodipodi="http://sodipodi.sourceforge.net/DTD/sodipodi-0.dtd"
   xmlns:inkscape="http://www.inkscape.org/namespaces/inkscape"
   id="svg3150"
   version="1.1"
   inkscape:version="0.48.5 r10040"
   width="238.67024"
   height="175.92757"
   sodipodi:docname="Stan_Lee_sig.jpg">
  <metadata
     id="metadata3156">
    <rdf:RDF>
      <cc:Work
         rdf:about="">
        <dc:format>image/svg+xml</dc:format>
        <dc:type
           rdf:resource="http://purl.org/dc/dcmitype/StillImage" />
        <dc:title></dc:title>
      </cc:Work>
    </rdf:RDF>
  </metadata>
  <defs
     id="defs3154" />
  <sodipodi:namedview
     pagecolor="#ffffff"
     bordercolor="#666666"
     borderopacity="1"
     objecttolerance="10"
     gridtolerance="10"
     guidetolerance="10"
     inkscape:pageopacity="0"
     inkscape:pageshadow="2"
     inkscape:window-width="1366"
     inkscape:window-height="705"
     id="namedview3152"
     showgrid="false"
     fit-margin-top="0"
     fit-margin-left="0"
     fit-margin-right="0"
     fit-margin-bottom="0"
     inkscape:zoom="2.2608696"
     inkscape:cx="114.4392"
     inkscape:cy="80.695869"
     inkscape:window-x="-8"
     inkscape:window-y="-8"
     inkscape:window-maximized="1"
     inkscape:current-layer="svg3150" />
  <path
     inkscape:connector-curvature="0"
     id="path3170"
     d="m 0,174.84908 c 0,-1.33453 1.536625,-2.6228 9,-7.54536 16.40208,-10.81819 26.691986,-15.65182 47.500002,-22.3129 5.5,-1.76067 19.225,-6.33904 30.5,-10.17416 C 142.50935,115.9355 150.26397,113.6178 172,109.41188 c 10.18027,-1.96989 40.63652,-5.42304 47.83031,-5.42304 3.21,0 6.15124,-0.31488 6.5361,-0.69974 0.79235,-0.79236 -19.27654,-21.298759 -20.84854,-21.303049 -0.55983,-0.0015 -2.87864,0.982755 -5.15291,2.187295 -3.85403,2.041245 -4.50708,2.100818 -9.60999,0.876648 l -5.47497,-1.313423 -7.39,4.804273 c -4.0645,2.64235 -9.68089,6.52411 -12.48087,8.62613 -11.56549,8.682546 -9.94186,3.855436 7.79613,-23.178145 10.62759,-16.196976 27.43392,-45.694157 26.54257,-46.5855 -0.52884,-0.528845 -7.431,7.982015 -21.56037,26.5855 -19.49297,25.665485 -20.79419,27.27193 -27.12053,33.482093 -5.59772,5.494922 -6.26612,5.874612 -8.20739,4.662262 -1.94231,-1.21299 -2.47363,-0.908 -6.56401,3.76791 -6.09003,6.961826 -11.29037,6.588086 -6.66007,-0.47865 2.46131,-3.75644 0.92763,-4.04765 -3.37405,-0.64065 -6.28007,4.973903 -10.98375,6.861536 -13.37566,5.367766 -1.80318,-1.126103 -2.64675,-0.671603 -8.06635,4.346 -4.67159,4.32507 -6.653438,5.53399 -8.685988,5.29845 -4.62592,-0.53607 -4.01797,-4.98667 2.0224,-14.805176 8.756238,-14.233083 23.891308,-27.702073 30.131568,-26.814658 1.96012,0.278745 2.19369,0.861972 2.04677,5.110729 -0.14219,4.111616 -0.89143,5.735945 -5.25,11.381845 -4.59585,5.953254 -6.19935,9.322084 -4.43714,9.322084 1.01077,0 9.31363,-6.80368 15.09502,-12.369435 4.02989,-3.879581 5.51508,-4.773457 6.42287,-3.865665 0.9078,0.907792 0.89255,1.823012 -0.0659,3.957969 -1.10277,2.456339 -0.74296,2.286207 3.11497,-1.472874 4.68541,-4.565358 6.20212,-5.115855 7.53466,-2.734742 1.09959,1.964853 2.99845,-0.03601 15.67333,-16.515258 30.29144,-39.383429 31.19054,-40.428672 34.23886,-39.804282 3.62414,0.742336 1.87614,6.219549 -6.71687,21.046797 -4.54458,7.841617 -9.7472,16.957485 -11.56139,20.257485 -1.8142,3.3 -6.21913,10.5 -9.78873,16 -3.56961,5.5 -6.13612,10.125795 -5.70337,10.279545 0.43274,0.15375 3.94908,-1.64625 7.81407,-4 6.62519,-4.034689 7.09703,-4.565622 8.24675,-9.279545 2.02205,-8.290491 2.11969,-8.5 3.96112,-8.5 0.97769,0 2.53571,-0.837671 3.46225,-1.861491 2.34536,-2.591596 9.18661,-5.520848 11.14171,-4.770604 2.73399,1.049132 1.26397,4.853518 -3.01636,7.806278 -2.2,1.517656 -4.94276,2.774324 -6.09501,2.792596 C 192.18408,70.990828 189,73.855006 189,75.81757 c 0,1.545861 1.06867,1.43389 3.44113,-0.360544 1.06762,-0.807509 2.30512,-1.468197 2.75,-1.468197 1.60943,0 0.76151,3.012626 -1.19113,4.232073 -1.1,0.686961 -2,1.815775 -2,2.508474 0,1.676313 3.26305,1.59421 7.53212,-0.18952 C 202.19408,79.427615 203,78.502741 203,76.560092 c 0,-6.057677 2.75185,-9.90412 10.26716,-14.351068 8.19718,-4.850422 12.99533,-5.389526 13.54561,-1.521938 0.39173,2.75321 -6.23252,7.825185 -12.21689,9.354071 -6.37617,1.628984 -7.44508,2.174322 -5.27245,2.689895 1.26225,0.299538 1.60534,0.944362 1.11481,2.095242 -0.38973,0.914394 -0.76027,2.396608 -0.82342,3.293809 -0.15578,2.213258 20.01665,24.473447 23.47701,25.906777 3.76981,1.5615 6.54241,4.72772 5.26159,6.00854 -0.66576,0.66576 -2.21595,0.49098 -4.64425,-0.52363 -4.85684,-2.02932 -12.80429,-1.91776 -33.20917,0.46615 -28.13691,3.28724 -51.01428,8.36678 -74.5,16.54147 -14.24043,4.95668 -45.135108,15.25844 -63.999998,21.34067 -26.85577,8.65856 -34.121157,11.85928 -48.394732,21.31998 C 3.758178,175.70684 0,177.27279 0,174.84908 z m 103.14745,-73.15834 c 1.45609,-1.05951 2.90928,-3.235553 3.2293,-4.835656 0.38304,-1.91518 1.76512,-3.60742 4.04474,-4.95244 C 113.9347,89.829803 127,75.669632 127,73.934859 c 0,-3.229317 -10.87729,4.193952 -17.8461,12.179174 -5.43396,6.226511 -11.153898,15.031877 -11.153898,17.170477 0,1.93899 0.50887,1.78143 5.147448,-1.59377 z M 64.505292,138.9974 c -1.42293,-2.30235 21.8543,-39.272813 39.986058,-63.508571 12.48267,-16.684915 13.14655,-17.996778 5.99778,-11.851985 -7.01146,6.026773 -16.090778,15.492589 -29.989128,31.26576 -23.88194,27.103496 -26.67375,30.153976 -28.97984,31.664986 -4.68999,3.073 -6.1159,-1.40815 -2.41157,-7.57875 1.15561,-1.925 11.53365,-12.88551 23.06231,-24.356686 13.17096,-13.105295 20.76249,-21.374515 20.42653,-22.250007 -0.4175,-1.087987 -3.26652,-1.393318 -13.00095,-1.393318 -23.11216,0 -23.45023,-2.631003 -1.9558,-15.220602 17.92708,-10.500145 46.395768,-21.779398 54.970928,-21.779398 1.22922,0 3.63084,-1.174569 5.33693,-2.610154 4.19221,-3.527515 18.58906,-20.757643 22.25925,-26.6398464 2.8428,-4.55613966 4.99335,-5.8515914 6.27406,-3.77936696 1.01361,1.64005196 -1.92573,6.03582396 -12.39009,18.52936736 -5.52804,6.6 -10.06016,12.272233 -10.07137,12.604963 -0.0112,0.33273 3.01711,0.871282 6.72961,1.196783 7.99949,0.701371 15.11752,2.994531 18.19516,5.861791 3.35259,3.123416 1.16232,4.626265 -3.66199,2.51266 -8.45334,-3.703543 -19.53607,-5.520434 -24.89684,-4.081563 -4.0347,1.082945 -29.33248,33.76214 -50.244858,64.905377 -10.15696,15.12599 -11.17977,17.03523 -9.27841,17.31955 1.17532,0.17575 2.13257,0.62575 2.12723,1 -0.0264,1.85299 -15.38374,19.18045 -16.9996,19.18045 -0.47996,0 -1.14839,-0.44615 -1.4854,-0.99144 z M 113.64164,55.393417 c 8.1721,-7.477477 15.00836,-14.002477 15.19169,-14.5 0.94715,-2.570345 -10.70903,0.66031 -26.41254,7.320565 -10.258558,4.350907 -32.393968,16.661054 -32.411278,18.024847 -0.005,0.4125 5.27799,0.756891 11.74049,0.765313 6.4625,0.0084 12.425,0.451531 13.25,0.984687 0.825,0.533156 2.01374,0.976265 2.64164,0.984687 0.62791,0.0084 7.827908,-6.102622 15.999998,-13.580099 z"
     style="fill:#333333" />
</svg>
